<?xml version="1.0" encoding="UTF-8"?>
<svg width="14px" height="14px" viewBox="0 0 14 14" version="1.1" xmlns="http://www.w3.org/2000/svg" xmlns:xlink="http://www.w3.org/1999/xlink">
    <title>1B8AAAB5-0FFD-4DD7-A637-FB8FA273B956</title>
    <g id="-----↳-Footer-✅" stroke="none" stroke-width="1" fill="none" fill-rule="evenodd">
        <g id="Footer/1200/4-Column/2-Lines" transform="translate(-1132.000000, -485.000000)" fill="#221F1F">
            <g id="Site-Directory" transform="translate(1132.000000, 480.000000)">
                <g id="Icons-/-Globe" transform="translate(0.000000, 5.000000)">
                    <path d="M6.99219682,-8.8817842e-16 C10.8625185,-8.8817842e-16 14,3.13773015 14,7.00814662 C14.0009905,8.70865582 13.3827174,10.351353 12.2604606,11.6295002 C12.1768829,11.7244384 12.0913781,11.8166416 12.0031398,11.906913 C9.40453344,14.548479 5.19882954,14.710422 2.40483261,12.2764896 C-0.513565523,9.7342035 -0.818641397,5.30725968 1.72485659,2.38697633 C1.80824258,2.29242094 1.89361679,2.20036641 1.98111362,2.11067191 C2.84982849,1.22144434 3.93826995,0.580948175 5.13528234,0.252079156 L5.436733,0.176390531 L5.56344866,0.148505493 C5.80356295,0.0984141847 6.02603625,0.0623388024 6.24100141,0.0403847094 C6.49056526,0.0134836794 6.74132417,-8.8817842e-16 6.99219682,-8.8817842e-16 Z M6.4158719,10.7086036 L6.32531394,10.7117787 C6.02560916,10.7283762 5.72677292,10.7573275 5.42957012,10.7985423 L4.94979509,10.8757525 L4.98534932,10.9608892 C5.34352559,11.7761357 5.79766979,12.3598141 6.28244962,12.6512253 L6.4158719,12.7224454 L6.4158719,10.7086036 Z M7.56778939,10.7086036 L7.56778939,12.7224454 C8.10341449,12.4640237 8.60836202,11.850249 8.99909977,10.9608892 L9.0338662,10.8757525 L8.99933777,10.869506 C8.55628562,10.7892955 8.10870621,10.7366057 7.65916311,10.7117397 L7.56778939,10.7086036 Z M3.80492604,11.1526557 L3.52586705,11.2471217 L3.23599694,11.358731 L3.12726829,11.4053929 L3.34107758,11.5848062 L3.53372882,11.733033 L3.74737609,11.8826922 L4.02066807,12.0539021 L4.34866332,12.2330818 L4.29223664,12.1448299 C4.14020029,11.8979235 4.00648986,11.6397298 3.8923711,11.3723049 L3.80492604,11.1526557 Z M10.1777283,11.1516488 L10.0910011,11.3709712 C9.97689001,11.6384059 9.84318044,11.896609 9.69114003,12.1435217 L9.63399104,12.231068 L9.82039411,12.1324477 L10.0098549,12.023389 L10.3262183,11.8199078 L10.5669776,11.6442693 L10.810289,11.4457542 L10.8553861,11.4043859 L10.7473877,11.3573228 C10.651588,11.318022 10.554938,11.2808229 10.4575075,11.2457523 L10.1777283,11.1516488 Z M3.10209526,7.5841281 L1.16780024,7.5841281 L1.18720058,7.76719626 C1.30573458,8.67598864 1.63646866,9.54437679 2.15250654,10.3017369 L2.30864161,10.5193025 L2.38080044,10.4838295 C2.60888358,10.3738257 2.84196033,10.2746556 3.07924796,10.1866302 L3.46257294,10.055112 L3.43563146,9.95374378 C3.25306807,9.21217729 3.14253769,8.45470349 3.10557744,7.69187203 L3.10209526,7.5841281 Z M12.815861,7.5841281 L10.881566,7.5841281 L10.8788716,7.69184375 C10.8419106,8.45463582 10.7313772,9.2121088 10.5488172,9.95370998 L10.5210883,10.055112 L10.546164,10.0629469 C10.9081134,10.1781282 11.2614867,10.3187654 11.6036376,10.4838018 L11.6750197,10.5193025 L11.8319741,10.3017313 C12.348043,9.54437888 12.6787813,8.67598498 12.7972764,7.76720667 L12.815861,7.5841281 Z M6.4158719,7.5841281 L4.25501968,7.5841281 L4.25734792,7.64128057 C4.29189922,8.33230591 4.39313493,9.01839332 4.55963965,9.68995649 L4.58126204,9.77418103 L4.662655,9.75712578 C5.21720328,9.6510153 5.77851321,9.58406641 6.34242808,9.55677811 L6.4158719,9.55467228 L6.4158719,7.5841281 Z M9.72864161,7.5841281 L7.56778939,7.5841281 L7.56778939,9.55467228 L7.64202898,9.55679005 C8.20593856,9.58409078 8.76724326,9.65103905 9.32178649,9.75713588 L9.40139232,9.77418103 L9.42482044,9.68995316 C9.59140832,9.01811076 9.69259961,8.33197295 9.72711818,7.64114329 L9.72864161,7.5841281 Z M2.30864161,3.49602931 L2.15247989,3.71496877 C1.63641929,4.47230967 1.30568793,5.34069078 1.18718154,6.24948999 L1.16780024,6.43120369 L3.10209526,6.43120369 L3.10557753,6.32486287 C3.14253851,5.5620708 3.25307192,4.80459782 3.43563186,4.06299664 L3.46257294,3.96021984 L3.43828505,3.95375971 C3.07633566,3.83857839 2.72296238,3.69794118 2.3808115,3.53290483 L2.30864161,3.49602931 Z M4.58126204,4.24215769 L4.55962786,4.32675662 C4.3931105,4.99831548 4.29187546,5.68439832 4.25733809,6.37541903 L4.25501968,6.43120369 L6.4158719,6.43120369 L6.4158719,4.46166644 L6.34242482,4.45991634 C5.7785179,4.43261512 5.21720256,4.36566592 4.66265979,4.25956984 L4.58126204,4.24215769 Z M11.6750197,3.49602931 L11.6036411,3.53286742 C11.3755614,3.64286262 11.1424883,3.74202889 10.9052044,3.83005523 L10.5210883,3.96021984 L10.5488176,4.06296284 C10.731381,4.80452933 10.8419114,5.56200313 10.8788716,6.32483459 L10.881566,6.43120369 L12.815861,6.43120369 L12.7972485,6.24951036 C12.6787145,5.34071798 12.3479804,4.47232983 11.8319425,3.71496972 L11.6750197,3.49602931 Z M9.40139232,4.24215769 L9.32179409,4.25958084 C8.76724581,4.36569132 8.20593587,4.43264021 7.64202101,4.45992851 L7.56778939,4.46166644 L7.56778939,6.43120369 L9.72864161,6.43120369 L9.72710117,6.37542606 C9.69254987,5.68440071 9.59131416,4.9983133 9.42480943,4.32675013 L9.40139232,4.24215769 Z M6.4158719,1.29288642 C5.88103459,1.55268293 5.37608707,2.16645759 4.98534932,3.05581747 L4.94979509,3.13957932 L4.98511132,3.14720057 C5.42816346,3.22741111 5.87574287,3.28010092 6.32528598,3.3049669 L6.4158719,3.30773511 L6.4158719,1.29288642 Z M7.56907631,1.29329748 L7.56778939,3.30773511 L7.65913515,3.30492793 C7.95883992,3.28833042 8.25767617,3.2593791 8.55487897,3.21816428 L9.0338662,3.13957932 L8.99909977,3.05581747 C8.60836202,2.16645759 8.10341449,1.55268293 7.56907631,1.29329748 Z M4.29330906,1.87296315 L4.35067716,1.78426381 L4.16435917,1.88396145 L3.90742458,2.03362991 L3.65823076,2.19679884 L3.39721821,2.38839758 L3.17232359,2.57257217 L3.12827521,2.61094585 L3.23706138,2.65916199 C3.33286109,2.69846287 3.42951104,2.73566196 3.52694159,2.7707325 L3.80593296,2.863683 L3.89344797,2.64551365 C4.00755908,2.3780789 4.14126864,2.11987581 4.29330906,1.87296315 Z M9.63298412,1.78325689 L9.6912525,1.8712297 C9.84348118,2.11811519 9.97737903,2.37630522 10.091677,2.6437417 L10.1787352,2.86267608 L10.458582,2.76914135 C10.5560092,2.73405981 10.6526558,2.69684776 10.7484521,2.65753203 L10.856393,2.60993893 L10.6444872,2.43234802 L10.4849122,2.30849769 L10.3058998,2.180548 L10.079405,2.03289909 L9.89242235,1.92173003 L9.68090175,1.8067291 L9.63298412,1.78325689 Z" id="globe"></path>
                </g>
            </g>
        </g>
    </g>
</svg>